<svg width="64" height="64" viewBox="0 0 64 64" fill="none" xmlns="http://www.w3.org/2000/svg">
  <defs>
    <linearGradient id="calBody" x1="32" y1="18" x2="32" y2="58" gradientUnits="userSpaceOnUse">
      <stop stop-color="#2AA4F4"/>
      <stop offset="1" stop-color="#1C8FE0"/>
    </linearGradient>
  </defs>
  <!-- binding rings -->
  <rect x="17" y="4" width="6" height="15" rx="3" fill="#4FC3F7"/>
  <rect x="41" y="4" width="6" height="15" rx="3" fill="#4FC3F7"/>
  <!-- body -->
  <rect x="8" y="9" width="48" height="49" rx="6" fill="url(#calBody)"/>
  <!-- header band -->
  <path d="M8 15a6 6 0 0 1 6-6h36a6 6 0 0 1 6 6v5H8v-5Z" fill="#1565C0"/>
  <!-- date dots -->
  <g fill="#fff">
    <rect x="25.5" y="26" width="5" height="5" rx="1.6"/>
    <rect x="34.5" y="26" width="5" height="5" rx="1.6"/>
    <rect x="43.5" y="26" width="5" height="5" rx="1.6"/>

    <rect x="16.5" y="36" width="5" height="5" rx="1.6"/>
    <rect x="25.5" y="36" width="5" height="5" rx="1.6"/>
    <rect x="34.5" y="36" width="5" height="5" rx="1.6"/>
    <rect x="43.5" y="36" width="5" height="5" rx="1.6"/>

    <rect x="16.5" y="46" width="5" height="5" rx="1.6"/>
    <rect x="25.5" y="46" width="5" height="5" rx="1.6"/>
    <rect x="34.5" y="46" width="5" height="5" rx="1.6"/>
  </g>
</svg>
