<svg width="3866" height="530" viewBox="0 0 3866 530" fill="none" xmlns="http://www.w3.org/2000/svg">
<mask id="path-1-outside-1_3445_122" maskUnits="userSpaceOnUse" x="2" y="5" width="3867" height="521" fill="black">
<rect fill="white" x="2" y="5" width="3867" height="521"/>
<path d="M110.939 509H16.7206L188.265 21.7273H297.236L469.018 509H374.799L244.654 121.656H240.847L110.939 509ZM114.032 317.945H370.993V388.847H114.032V317.945ZM900.733 177.331C896.768 164.483 891.295 152.983 884.316 142.832C877.496 132.522 869.247 123.718 859.572 116.422C850.055 109.125 839.11 103.653 826.738 100.005C814.366 96.1981 800.883 94.2947 786.291 94.2947C760.119 94.2947 736.802 100.877 716.34 114.043C695.879 127.208 679.779 146.559 668.041 172.097C656.462 197.475 650.673 228.406 650.673 264.888C650.673 301.687 656.462 332.855 668.041 358.393C679.62 383.93 695.72 403.361 716.34 416.685C736.961 429.85 760.912 436.433 788.194 436.433C812.938 436.433 834.352 431.674 852.434 422.157C870.675 412.64 884.713 399.157 894.547 381.71C904.381 364.103 909.298 343.483 909.298 319.849L929.284 322.942H796.997V253.943H994.714V312.473C994.714 354.189 985.831 390.275 968.066 420.729C950.301 451.184 925.874 474.659 894.785 491.156C863.696 507.493 828.007 515.662 787.718 515.662C742.829 515.662 703.413 505.59 669.469 485.445C635.683 465.142 609.274 436.353 590.239 399.078C571.364 361.644 561.926 317.232 561.926 265.839C561.926 226.502 567.478 191.369 578.581 160.438C589.843 129.508 605.546 103.257 625.69 81.6846C645.835 59.9541 669.469 43.4578 696.592 32.196C723.716 20.7756 753.219 15.0653 785.101 15.0653C812.066 15.0653 837.207 19.0308 860.524 26.9616C883.84 34.7339 904.54 45.8371 922.622 60.2713C940.863 74.7055 955.853 91.8362 967.59 111.663C979.328 131.491 987.021 153.38 990.669 177.331H900.733ZM1144.07 509V21.7273H1460.99V95.7223H1232.34V228.009H1444.57V302.004H1232.34V435.005H1462.89V509H1144.07ZM2015.47 21.7273V509H1936.96L1707.36 177.093H1703.31V509H1615.04V21.7273H1694.03L1923.39 353.872H1927.68V21.7273H2015.47Z"/>
<path d="M2592.74 186.134H2503.75C2501.22 171.541 2496.54 158.614 2489.72 147.352C2482.9 135.932 2474.41 126.256 2464.26 118.325C2454.11 110.394 2442.53 104.446 2429.52 100.481C2416.67 96.3568 2402.79 94.2947 2387.88 94.2947C2361.39 94.2947 2337.92 100.957 2317.46 114.281C2297 127.446 2280.98 146.797 2269.4 172.335C2257.82 197.713 2252.03 228.723 2252.03 265.364C2252.03 302.639 2257.82 334.045 2269.4 359.582C2281.13 384.961 2297.15 404.154 2317.46 417.161C2337.92 430.009 2361.32 436.433 2387.65 436.433C2402.24 436.433 2415.88 434.529 2428.57 430.722C2441.42 426.757 2452.92 420.967 2463.07 413.354C2473.38 405.74 2482.02 396.382 2489 385.278C2496.14 374.175 2501.06 361.486 2503.75 347.21L2592.74 347.686C2589.41 370.844 2582.19 392.575 2571.09 412.878C2560.14 433.181 2545.79 451.105 2528.02 466.649C2510.26 482.035 2489.48 494.09 2465.69 502.814C2441.89 511.379 2415.48 515.662 2386.46 515.662C2343.63 515.662 2305.4 505.748 2271.78 485.921C2238.15 466.094 2211.66 437.464 2192.31 400.03C2172.96 362.596 2163.28 317.707 2163.28 265.364C2163.28 212.861 2173.04 167.973 2192.55 130.697C2212.06 93.2637 2238.62 64.6333 2272.25 44.8061C2305.88 24.9789 2343.95 15.0653 2386.46 15.0653C2413.58 15.0653 2438.8 18.8721 2462.12 26.4858C2485.43 34.0994 2506.21 45.282 2524.45 60.0334C2542.69 74.6262 2557.68 92.5499 2569.42 113.805C2581.32 134.901 2589.09 159.011 2592.74 186.134ZM2825.84 21.7273V509H2737.57V21.7273H2825.84ZM2985.43 509V21.7273H3297.59V95.7223H3073.7V228.009H3276.18V302.004H3073.7V509H2985.43ZM3408.7 21.7273H3508.39L3627.59 237.288H3632.35L3751.55 21.7273H3851.24L3673.99 327.224V509H3585.95V327.224L3408.7 21.7273Z"/>
</mask>
<path d="M110.939 509H16.7206L188.265 21.7273H297.236L469.018 509H374.799L244.654 121.656H240.847L110.939 509ZM114.032 317.945H370.993V388.847H114.032V317.945ZM900.733 177.331C896.768 164.483 891.295 152.983 884.316 142.832C877.496 132.522 869.247 123.718 859.572 116.422C850.055 109.125 839.11 103.653 826.738 100.005C814.366 96.1981 800.883 94.2947 786.291 94.2947C760.119 94.2947 736.802 100.877 716.34 114.043C695.879 127.208 679.779 146.559 668.041 172.097C656.462 197.475 650.673 228.406 650.673 264.888C650.673 301.687 656.462 332.855 668.041 358.393C679.62 383.93 695.72 403.361 716.34 416.685C736.961 429.85 760.912 436.433 788.194 436.433C812.938 436.433 834.352 431.674 852.434 422.157C870.675 412.64 884.713 399.157 894.547 381.71C904.381 364.103 909.298 343.483 909.298 319.849L929.284 322.942H796.997V253.943H994.714V312.473C994.714 354.189 985.831 390.275 968.066 420.729C950.301 451.184 925.874 474.659 894.785 491.156C863.696 507.493 828.007 515.662 787.718 515.662C742.829 515.662 703.413 505.59 669.469 485.445C635.683 465.142 609.274 436.353 590.239 399.078C571.364 361.644 561.926 317.232 561.926 265.839C561.926 226.502 567.478 191.369 578.581 160.438C589.843 129.508 605.546 103.257 625.69 81.6846C645.835 59.9541 669.469 43.4578 696.592 32.196C723.716 20.7756 753.219 15.0653 785.101 15.0653C812.066 15.0653 837.207 19.0308 860.524 26.9616C883.84 34.7339 904.54 45.8371 922.622 60.2713C940.863 74.7055 955.853 91.8362 967.59 111.663C979.328 131.491 987.021 153.38 990.669 177.331H900.733ZM1144.07 509V21.7273H1460.99V95.7223H1232.34V228.009H1444.57V302.004H1232.34V435.005H1462.89V509H1144.07ZM2015.47 21.7273V509H1936.96L1707.36 177.093H1703.31V509H1615.04V21.7273H1694.03L1923.39 353.872H1927.68V21.7273H2015.47Z" fill="#F5F5F5"/>
<path d="M110.939 509V519H118.133L120.42 512.18L110.939 509ZM16.7206 509L7.28808 505.679L2.5985 519H16.7206V509ZM188.265 21.7273V11.7273H181.184L178.833 18.4065L188.265 21.7273ZM297.236 21.7273L306.667 18.4024L304.313 11.7273H297.236V21.7273ZM469.018 509V519H483.147L478.449 505.675L469.018 509ZM374.799 509L365.32 512.185L367.61 519H374.799V509ZM244.654 121.656L254.133 118.471L251.843 111.656H244.654V121.656ZM240.847 121.656V111.656H233.653L231.366 118.477L240.847 121.656ZM114.032 317.945V307.945H104.032V317.945H114.032ZM370.993 317.945H380.993V307.945H370.993V317.945ZM370.993 388.847V398.847H380.993V388.847H370.993ZM114.032 388.847H104.032V398.847H114.032V388.847ZM110.939 499H16.7206V519H110.939V499ZM26.1532 512.321L197.698 25.048L178.833 18.4065L7.28808 505.679L26.1532 512.321ZM188.265 31.7273H297.236V11.7273H188.265V31.7273ZM287.804 25.0521L459.587 512.325L478.449 505.675L306.667 18.4024L287.804 25.0521ZM469.018 499H374.799V519H469.018V499ZM384.279 505.815L254.133 118.471L235.175 124.841L365.32 512.185L384.279 505.815ZM244.654 111.656H240.847V131.656H244.654V111.656ZM231.366 118.477L101.458 505.82L120.42 512.18L250.328 124.836L231.366 118.477ZM114.032 327.945H370.993V307.945H114.032V327.945ZM360.993 317.945V388.847H380.993V317.945H360.993ZM370.993 378.847H114.032V398.847H370.993V378.847ZM124.032 388.847V317.945H104.032V388.847H124.032ZM900.733 177.331L891.178 180.28L893.354 187.331H900.733V177.331ZM884.316 142.832L875.976 148.349L876.025 148.423L876.076 148.497L884.316 142.832ZM859.572 116.422L853.488 124.358L853.519 124.382L853.551 124.406L859.572 116.422ZM826.738 100.005L823.797 109.563L823.853 109.58L823.91 109.597L826.738 100.005ZM716.34 114.043L721.751 122.452L721.751 122.452L716.34 114.043ZM668.041 172.097L658.955 167.92L658.949 167.933L658.943 167.946L668.041 172.097ZM668.041 358.393L658.934 362.522L658.934 362.522L668.041 358.393ZM716.34 416.685L710.913 425.084L710.936 425.099L710.959 425.113L716.34 416.685ZM852.434 422.157L847.808 413.291L847.792 413.299L847.777 413.308L852.434 422.157ZM894.547 381.71L903.259 386.62L903.268 386.603L903.277 386.586L894.547 381.71ZM909.298 319.849L910.828 309.966L899.298 308.182V319.849H909.298ZM929.284 322.942V332.942L930.814 313.059L929.284 322.942ZM796.997 322.942H786.997V332.942H796.997V322.942ZM796.997 253.943V243.943H786.997V253.943H796.997ZM994.714 253.943H1004.71V243.943H994.714V253.943ZM968.066 420.729L976.704 425.768L976.704 425.768L968.066 420.729ZM894.785 491.156L899.437 500.008L899.454 499.998L899.472 499.989L894.785 491.156ZM669.469 485.445L664.318 494.017L664.342 494.031L664.365 494.045L669.469 485.445ZM590.239 399.078L581.31 403.581L581.322 403.603L581.333 403.626L590.239 399.078ZM578.581 160.438L569.185 157.017L569.177 157.038L569.169 157.06L578.581 160.438ZM625.69 81.6846L632.999 88.5097L633.012 88.4964L633.024 88.483L625.69 81.6846ZM696.592 32.196L700.427 41.4316L700.45 41.422L700.473 41.4124L696.592 32.196ZM860.524 26.9616L857.303 36.429L857.332 36.4388L857.361 36.4485L860.524 26.9616ZM922.622 60.2713L916.384 68.0867L916.4 68.1L916.417 68.1132L922.622 60.2713ZM967.59 111.663L976.195 106.569L976.195 106.569L967.59 111.663ZM990.669 177.331V187.331H1002.31L1000.56 175.825L990.669 177.331ZM910.288 174.382C906.052 160.655 900.159 148.224 892.557 137.166L876.076 148.497C882.432 157.742 887.484 168.311 891.178 180.28L910.288 174.382ZM892.656 137.314C885.221 126.075 876.194 116.432 865.593 108.438L853.551 124.406C862.3 131.004 869.77 138.968 875.976 148.349L892.656 137.314ZM865.656 108.486C855.093 100.387 843.027 94.3823 829.566 90.4133L823.91 109.597C835.194 112.924 845.016 117.863 853.488 124.358L865.656 108.486ZM829.679 90.4472C816.241 86.3126 801.755 84.2947 786.291 84.2947V104.295C800.012 104.295 812.49 106.084 823.797 109.563L829.679 90.4472ZM786.291 84.2947C758.351 84.2947 733.128 91.3504 710.929 105.633L721.751 122.452C740.476 110.404 761.886 104.295 786.291 104.295V84.2947ZM710.929 105.633C688.627 119.982 671.363 140.925 658.955 167.92L677.127 176.273C688.195 152.193 703.13 134.433 721.751 122.452L710.929 105.633ZM658.943 167.946C646.617 194.963 640.673 227.395 640.673 264.888H660.673C660.673 229.416 666.308 199.987 677.139 176.247L658.943 167.946ZM640.673 264.888C640.673 302.686 646.613 335.35 658.934 362.522L677.149 354.263C666.311 330.361 660.673 300.688 660.673 264.888H640.673ZM658.934 362.522C671.189 389.552 688.462 410.577 710.913 425.084L721.767 408.285C702.978 396.145 688.051 378.309 677.149 354.263L658.934 362.522ZM710.959 425.113C733.368 439.42 759.232 446.433 788.194 446.433V426.433C762.592 426.433 740.554 420.28 721.722 408.256L710.959 425.113ZM788.194 446.433C814.222 446.433 837.3 441.423 857.092 431.006L847.777 413.308C831.403 421.925 811.655 426.433 788.194 426.433V446.433ZM857.06 431.023C876.967 420.636 892.447 405.802 903.259 386.62L885.835 376.799C876.979 392.513 864.383 404.644 847.808 413.291L857.06 431.023ZM903.277 386.586C914.077 367.251 919.298 344.895 919.298 319.849H899.298C899.298 342.071 894.685 360.955 885.817 376.833L903.277 386.586ZM907.769 329.731L927.755 332.824L930.814 313.059L910.828 309.966L907.769 329.731ZM929.284 312.942H796.997V332.942H929.284V312.942ZM806.997 322.942V253.943H786.997V322.942H806.997ZM796.997 263.943H994.714V243.943H796.997V263.943ZM984.714 253.943V312.473H1004.71V253.943H984.714ZM984.714 312.473C984.714 352.745 976.15 387.025 959.428 415.691L976.704 425.768C995.512 393.525 1004.71 355.634 1004.71 312.473H984.714ZM959.428 415.691C942.599 444.54 919.539 466.7 890.098 482.322L899.472 499.989C932.209 482.619 958.003 457.828 976.704 425.768L959.428 415.691ZM890.133 482.303C860.677 497.783 826.626 505.662 787.718 505.662V525.662C829.388 525.662 866.715 517.204 899.437 500.008L890.133 482.303ZM787.718 505.662C744.374 505.662 706.769 495.953 674.572 476.846L664.365 494.045C700.057 515.226 741.285 525.662 787.718 525.662V505.662ZM674.62 476.874C642.538 457.595 617.384 430.247 599.145 394.53L581.333 403.626C601.163 442.459 628.829 472.69 664.318 494.017L674.62 476.874ZM599.169 394.576C581.139 358.819 571.926 316.015 571.926 265.839H551.926C551.926 318.448 561.589 364.47 581.31 403.581L599.169 394.576ZM571.926 265.839C571.926 227.433 577.347 193.473 587.993 163.817L569.169 157.06C557.609 189.264 551.926 225.571 551.926 265.839H571.926ZM587.978 163.859C598.832 134.047 613.873 108.992 632.999 88.5097L618.382 74.8595C597.219 97.5216 580.853 124.969 569.185 157.017L587.978 163.859ZM633.024 88.483C652.2 67.7972 674.644 52.1369 700.427 41.4316L692.758 22.9605C664.294 34.7787 639.47 52.1109 618.357 74.8863L633.024 88.483ZM700.473 41.4124C726.269 30.5509 754.44 25.0653 785.101 25.0653V5.06532C751.998 5.06532 721.163 11.0002 692.712 22.9797L700.473 41.4124ZM785.101 25.0653C811.074 25.0653 835.117 28.8827 857.303 36.429L863.744 17.4943C839.296 9.17885 813.058 5.06532 785.101 5.06532V25.0653ZM857.361 36.4485C879.632 43.8721 899.276 54.4309 916.384 68.0867L928.861 52.4559C909.803 37.2433 888.048 25.5956 863.686 17.4748L857.361 36.4485ZM916.417 68.1132C933.706 81.7938 947.878 97.9959 958.985 116.758L976.195 106.569C963.827 85.6764 948.021 67.6172 928.828 52.4295L916.417 68.1132ZM958.985 116.758C970.037 135.426 977.318 156.086 980.783 178.837L1000.56 175.825C996.724 150.673 988.619 127.555 976.195 106.569L958.985 116.758ZM990.669 167.331H900.733V187.331H990.669V167.331ZM1144.07 509H1134.07V519H1144.07V509ZM1144.07 21.7273V11.7273H1134.07V21.7273H1144.07ZM1460.99 21.7273H1470.99V11.7273H1460.99V21.7273ZM1460.99 95.7223V105.722H1470.99V95.7223H1460.99ZM1232.34 95.7223V85.7223H1222.34V95.7223H1232.34ZM1232.34 228.009H1222.34V238.009H1232.34V228.009ZM1444.57 228.009H1454.57V218.009H1444.57V228.009ZM1444.57 302.004V312.004H1454.57V302.004H1444.57ZM1232.34 302.004V292.004H1222.34V302.004H1232.34ZM1232.34 435.005H1222.34V445.005H1232.34V435.005ZM1462.89 435.005H1472.89V425.005H1462.89V435.005ZM1462.89 509V519H1472.89V509H1462.89ZM1154.07 509V21.7273H1134.07V509H1154.07ZM1144.07 31.7273H1460.99V11.7273H1144.07V31.7273ZM1450.99 21.7273V95.7223H1470.99V21.7273H1450.99ZM1460.99 85.7223H1232.34V105.722H1460.99V85.7223ZM1222.34 95.7223V228.009H1242.34V95.7223H1222.34ZM1232.34 238.009H1444.57V218.009H1232.34V238.009ZM1434.57 228.009V302.004H1454.57V228.009H1434.57ZM1444.57 292.004H1232.34V312.004H1444.57V292.004ZM1222.34 302.004V435.005H1242.34V302.004H1222.34ZM1232.34 445.005H1462.89V425.005H1232.34V445.005ZM1452.89 435.005V509H1472.89V435.005H1452.89ZM1462.89 499H1144.07V519H1462.89V499ZM2015.47 21.7273H2025.47V11.7273H2015.47V21.7273ZM2015.47 509V519H2025.47V509H2015.47ZM1936.96 509L1928.73 514.689L1931.71 519H1936.96V509ZM1707.36 177.093L1715.58 171.404L1712.6 167.093H1707.36V177.093ZM1703.31 177.093V167.093H1693.31V177.093H1703.31ZM1703.31 509V519H1713.31V509H1703.31ZM1615.04 509H1605.04V519H1615.04V509ZM1615.04 21.7273V11.7273H1605.04V21.7273H1615.04ZM1694.03 21.7273L1702.26 16.045L1699.28 11.7273H1694.03V21.7273ZM1923.39 353.872L1915.17 359.554L1918.15 363.872H1923.39V353.872ZM1927.68 353.872V363.872H1937.68V353.872H1927.68ZM1927.68 21.7273V11.7273H1917.68V21.7273H1927.68ZM2005.47 21.7273V509H2025.47V21.7273H2005.47ZM2015.47 499H1936.96V519H2015.47V499ZM1945.18 503.311L1715.58 171.404L1699.13 182.782L1928.73 514.689L1945.18 503.311ZM1707.36 167.093H1703.31V187.093H1707.36V167.093ZM1693.31 177.093V509H1713.31V177.093H1693.31ZM1703.31 499H1615.04V519H1703.31V499ZM1625.04 509V21.7273H1605.04V509H1625.04ZM1615.04 31.7273H1694.03V11.7273H1615.04V31.7273ZM1685.81 27.4095L1915.17 359.554L1931.62 348.19L1702.26 16.045L1685.81 27.4095ZM1923.39 363.872H1927.68V343.872H1923.39V363.872ZM1937.68 353.872V21.7273H1917.68V353.872H1937.68ZM1927.68 31.7273H2015.47V11.7273H1927.68V31.7273ZM2592.74 186.134V196.134H2604.17L2602.65 184.801L2592.74 186.134ZM2503.75 186.134L2493.9 187.848L2495.34 196.134H2503.75V186.134ZM2489.72 147.352L2481.13 152.48L2481.15 152.506L2481.16 152.533L2489.72 147.352ZM2464.26 118.325L2470.41 110.445L2470.41 110.445L2464.26 118.325ZM2429.52 100.481L2426.46 110.002L2426.53 110.025L2426.6 110.046L2429.52 100.481ZM2317.46 114.281L2322.87 122.69L2322.89 122.675L2322.91 122.66L2317.46 114.281ZM2269.4 172.335L2278.49 176.485L2278.5 176.475L2278.5 176.464L2269.4 172.335ZM2269.4 359.582L2260.29 363.712L2260.3 363.746L2260.32 363.78L2269.4 359.582ZM2317.46 417.161L2312.06 425.581L2312.1 425.605L2312.14 425.629L2317.46 417.161ZM2428.57 430.722L2431.44 440.301L2431.48 440.289L2431.52 440.278L2428.57 430.722ZM2463.07 413.354L2457.13 405.309L2457.1 405.331L2457.07 405.354L2463.07 413.354ZM2489 385.278L2480.59 379.871L2480.56 379.914L2480.54 379.957L2489 385.278ZM2503.75 347.21L2503.81 337.21L2495.47 337.166L2493.93 345.354L2503.75 347.21ZM2592.74 347.686L2602.64 349.11L2604.27 337.748L2592.79 337.686L2592.74 347.686ZM2571.09 412.878L2562.31 408.08L2562.3 408.106L2562.28 408.133L2571.09 412.878ZM2528.02 466.649L2534.57 474.208L2534.59 474.192L2534.61 474.175L2528.02 466.649ZM2465.69 502.814L2469.07 512.223L2469.1 512.213L2469.13 512.203L2465.69 502.814ZM2271.78 485.921L2276.86 477.307L2271.78 485.921ZM2192.31 400.03L2183.43 404.622L2183.43 404.622L2192.31 400.03ZM2192.55 130.697L2201.41 135.335L2201.41 135.327L2201.41 135.319L2192.55 130.697ZM2272.25 44.8061L2267.17 36.192L2267.17 36.192L2272.25 44.8061ZM2462.12 26.4858L2465.22 16.9797L2465.22 16.9797L2462.12 26.4858ZM2524.45 60.0334L2518.17 67.809L2518.19 67.8256L2518.21 67.8421L2524.45 60.0334ZM2569.42 113.805L2560.67 118.639L2560.69 118.678L2560.71 118.717L2569.42 113.805ZM2592.74 176.134H2503.75V196.134H2592.74V176.134ZM2513.61 184.421C2510.88 168.754 2505.81 154.623 2498.27 142.172L2481.16 152.533C2487.26 162.605 2491.55 174.329 2493.9 187.848L2513.61 184.421ZM2498.3 142.225C2490.87 129.78 2481.57 119.161 2470.41 110.445L2458.1 126.206C2467.25 133.352 2474.92 142.084 2481.13 152.48L2498.3 142.225ZM2470.41 110.445C2459.24 101.717 2446.55 95.2188 2432.44 90.9155L2426.6 110.046C2438.5 113.674 2448.97 119.072 2458.1 126.206L2470.41 110.445ZM2432.58 90.9593C2418.64 86.4868 2403.72 84.2947 2387.88 84.2947V104.295C2401.86 104.295 2414.7 106.227 2426.46 110.002L2432.58 90.9593ZM2387.88 84.2947C2359.63 84.2947 2334.22 91.4296 2312 105.901L2322.91 122.66C2341.61 110.484 2363.16 104.295 2387.88 104.295V84.2947ZM2312.05 105.871C2289.73 120.229 2272.54 141.188 2260.29 168.205L2278.5 176.464C2289.41 152.406 2304.26 134.663 2322.87 122.69L2312.05 105.871ZM2260.3 168.184C2247.97 195.206 2242.03 227.72 2242.03 265.364H2262.03C2262.03 229.726 2267.67 200.22 2278.49 176.485L2260.3 168.184ZM2242.03 265.364C2242.03 303.617 2247.96 336.525 2260.29 363.712L2278.5 355.453C2267.67 331.565 2262.03 301.66 2262.03 265.364H2242.03ZM2260.32 363.78C2272.73 390.607 2289.91 411.391 2312.06 425.581L2322.85 408.74C2304.4 396.917 2289.54 379.316 2278.47 355.385L2260.32 363.78ZM2312.14 425.629C2334.34 439.567 2359.61 446.433 2387.65 446.433V426.433C2363.02 426.433 2341.5 420.45 2322.78 408.692L2312.14 425.629ZM2387.65 446.433C2403.11 446.433 2417.73 444.414 2431.44 440.301L2425.7 421.144C2414.03 424.644 2401.36 426.433 2387.65 426.433V446.433ZM2431.52 440.278C2445.4 435.993 2457.94 429.698 2469.07 421.354L2457.07 405.354C2447.89 412.237 2437.44 417.52 2425.62 421.167L2431.52 440.278ZM2469.01 421.398C2480.35 413.025 2489.84 402.736 2497.47 390.6L2480.54 379.957C2474.21 390.028 2466.41 398.455 2457.13 405.309L2469.01 421.398ZM2497.41 390.686C2505.31 378.397 2510.67 364.478 2513.58 349.066L2493.93 345.354C2491.45 358.493 2486.97 369.954 2480.59 379.871L2497.41 390.686ZM2503.7 357.21L2592.68 357.686L2592.79 337.686L2503.81 337.21L2503.7 357.21ZM2582.84 346.262C2579.68 368.251 2572.84 388.837 2562.31 408.08L2579.86 417.676C2591.54 396.313 2599.14 373.438 2602.64 349.11L2582.84 346.262ZM2562.28 408.133C2551.92 427.359 2538.32 444.347 2521.44 459.123L2534.61 474.175C2553.25 457.862 2568.36 439.003 2579.89 417.623L2562.28 408.133ZM2521.48 459.09C2504.7 473.623 2484.99 485.085 2462.24 493.425L2469.13 512.203C2493.97 503.095 2515.82 490.447 2534.57 474.208L2521.48 459.09ZM2462.3 493.405C2439.74 501.526 2414.5 505.662 2386.46 505.662V525.662C2416.47 525.662 2444.05 521.232 2469.07 512.223L2462.3 493.405ZM2386.46 505.662C2345.24 505.662 2308.8 496.14 2276.86 477.307L2266.7 494.535C2302.01 515.356 2342.02 525.662 2386.46 525.662V505.662ZM2276.86 477.307C2244.98 458.512 2219.75 431.338 2201.19 395.438L2183.43 404.622C2203.57 443.589 2231.32 473.676 2266.7 494.535L2276.86 477.307ZM2201.19 395.438C2182.73 359.726 2173.28 316.489 2173.28 265.364H2153.28C2153.28 318.926 2163.18 365.466 2183.43 404.622L2201.19 395.438ZM2173.28 265.364C2173.28 214.084 2182.81 170.867 2201.41 135.335L2183.69 126.06C2163.26 165.078 2153.28 211.639 2153.28 265.364H2173.28ZM2201.41 135.319C2220.13 99.4042 2245.45 72.2199 2277.33 53.4202L2267.17 36.192C2231.8 57.0466 2203.98 87.1232 2183.68 126.076L2201.41 135.319ZM2277.33 53.4202C2309.28 34.5802 2345.57 25.0653 2386.46 25.0653V5.06532C2342.32 5.06532 2302.47 15.3776 2267.17 36.192L2277.33 53.4202ZM2386.46 25.0653C2412.64 25.0653 2436.8 28.7381 2459.01 35.9918L2465.22 16.9797C2440.8 9.00618 2414.52 5.06532 2386.46 5.06532V25.0653ZM2459.01 35.9918C2481.23 43.2449 2500.91 53.8581 2518.17 67.809L2530.74 52.2578C2511.51 36.7058 2489.64 24.954 2465.22 16.9797L2459.01 35.9918ZM2518.21 67.8421C2535.39 81.5848 2549.54 98.4842 2560.67 118.639L2578.18 108.97C2565.83 86.6157 2550 67.6675 2530.7 52.2247L2518.21 67.8421ZM2560.71 118.717C2571.91 138.572 2579.33 161.439 2582.83 187.467L2602.65 184.801C2598.85 156.582 2590.73 131.229 2578.13 108.893L2560.71 118.717ZM2825.84 21.7273H2835.84V11.7273H2825.84V21.7273ZM2825.84 509V519H2835.84V509H2825.84ZM2737.57 509H2727.57V519H2737.57V509ZM2737.57 21.7273V11.7273H2727.57V21.7273H2737.57ZM2815.84 21.7273V509H2835.84V21.7273H2815.84ZM2825.84 499H2737.57V519H2825.84V499ZM2747.57 509V21.7273H2727.57V509H2747.57ZM2737.57 31.7273H2825.84V11.7273H2737.57V31.7273ZM2985.43 509H2975.43V519H2985.43V509ZM2985.43 21.7273V11.7273H2975.43V21.7273H2985.43ZM3297.59 21.7273H3307.59V11.7273H3297.59V21.7273ZM3297.59 95.7223V105.722H3307.59V95.7223H3297.59ZM3073.7 95.7223V85.7223H3063.7V95.7223H3073.7ZM3073.7 228.009H3063.7V238.009H3073.7V228.009ZM3276.18 228.009H3286.18V218.009H3276.18V228.009ZM3276.18 302.004V312.004H3286.18V302.004H3276.18ZM3073.7 302.004V292.004H3063.7V302.004H3073.7ZM3073.7 509V519H3083.7V509H3073.7ZM2995.43 509V21.7273H2975.43V509H2995.43ZM2985.43 31.7273H3297.59V11.7273H2985.43V31.7273ZM3287.59 21.7273V95.7223H3307.59V21.7273H3287.59ZM3297.59 85.7223H3073.7V105.722H3297.59V85.7223ZM3063.7 95.7223V228.009H3083.7V95.7223H3063.7ZM3073.7 238.009H3276.18V218.009H3073.7V238.009ZM3266.18 228.009V302.004H3286.18V228.009H3266.18ZM3276.18 292.004H3073.7V312.004H3276.18V292.004ZM3063.7 302.004V509H3083.7V302.004H3063.7ZM3073.7 499H2985.43V519H3073.7V499ZM3408.7 21.7273V11.7273H3391.34L3400.05 26.7459L3408.7 21.7273ZM3508.39 21.7273L3517.14 16.8881L3514.29 11.7273H3508.39V21.7273ZM3627.59 237.288L3618.84 242.128L3621.69 247.288H3627.59V237.288ZM3632.35 237.288V247.288H3638.25L3641.1 242.128L3632.35 237.288ZM3751.55 21.7273V11.7273H3745.65L3742.8 16.8881L3751.55 21.7273ZM3851.24 21.7273L3859.89 26.7459L3868.61 11.7273H3851.24V21.7273ZM3673.99 327.224L3665.34 322.206L3663.99 324.533V327.224H3673.99ZM3673.99 509V519H3683.99V509H3673.99ZM3585.95 509H3575.95V519H3585.95V509ZM3585.95 327.224H3595.95V324.533L3594.6 322.206L3585.95 327.224ZM3408.7 31.7273H3508.39V11.7273H3408.7V31.7273ZM3499.64 26.5665L3618.84 242.128L3636.34 232.449L3517.14 16.8881L3499.64 26.5665ZM3627.59 247.288H3632.35V227.288H3627.59V247.288ZM3641.1 242.128L3760.3 26.5665L3742.8 16.8881L3623.6 232.449L3641.1 242.128ZM3751.55 31.7273H3851.24V11.7273H3751.55V31.7273ZM3842.59 16.7087L3665.34 322.206L3682.64 332.243L3859.89 26.7459L3842.59 16.7087ZM3663.99 327.224V509H3683.99V327.224H3663.99ZM3673.99 499H3585.95V519H3673.99V499ZM3595.95 509V327.224H3575.95V509H3595.95ZM3594.6 322.206L3417.35 16.7087L3400.05 26.7459L3577.31 332.243L3594.6 322.206Z" fill="#F5F5F5" mask="url(#path-1-outside-1_3445_122)"/>
</svg>
